<?xml version="1.0" standalone="no"?><!DOCTYPE svg PUBLIC "-//W3C//DTD SVG 1.1//EN" "http://www.w3.org/Graphics/SVG/1.1/DTD/svg11.dtd"><svg t="1590657369079" class="icon" viewBox="0 0 1024 1024" version="1.1" xmlns="http://www.w3.org/2000/svg" p-id="4043" xmlns:xlink="http://www.w3.org/1999/xlink" width="24" height="24"><defs><style type="text/css"></style></defs><path d="M995.84 1024H28.16C12.8 1024 0 1011.2 0 995.84s12.8-28.16 28.16-28.16h967.68c15.36 0 28.16 12.8 28.16 28.16s-12.8 28.16-28.16 28.16zM926.72 376.32c-10.24-10.24-30.72-10.24-40.96 0L537.6 721.92V28.16C537.6 12.8 527.36 0 512 0s-25.6 12.8-25.6 28.16v693.76l-348.16-345.6c-10.24-10.24-30.72-10.24-40.96 0-10.24 10.24-10.24 28.16 0 40.96l394.24 394.24c2.56 2.56 2.56 2.56 5.12 2.56l2.56 2.56c7.68 2.56 15.36 2.56 23.04 0 2.56 0 2.56-2.56 2.56-2.56 2.56 0 5.12-2.56 5.12-2.56l394.24-394.24c12.8-12.8 12.8-30.72 2.56-40.96z" fill="#ffffff" p-id="4044"></path></svg>