<?xml version="1.0" standalone="no"?><!DOCTYPE svg PUBLIC "-//W3C//DTD SVG 1.1//EN" "http://www.w3.org/Graphics/SVG/1.1/DTD/svg11.dtd"><svg t="1591612092599" class="icon" viewBox="0 0 1024 1024" version="1.1" xmlns="http://www.w3.org/2000/svg" p-id="1180" xmlns:xlink="http://www.w3.org/1999/xlink" width="64" height="64"><defs><style type="text/css"></style></defs><path d="M293.376 800.256c16.896 0 30.208-13.312 30.208-30.208V441.344c0-16.896-13.312-30.208-30.208-30.208s-30.208 13.312-30.208 30.208v328.704c0 16.896 13.312 30.208 30.208 30.208zM548.864 800.256c16.896 0 30.208-13.312 30.208-30.208V205.824c0-16.896-13.312-30.208-30.208-30.208s-30.208 13.312-30.208 30.208v564.224c0 16.896 13.824 30.208 30.208 30.208zM804.864 800.256c16.896 0 30.208-13.312 30.208-30.208V359.424c0-16.896-13.312-30.208-30.208-30.208s-30.208 13.312-30.208 30.208v410.624c0 16.896 13.312 30.208 30.208 30.208z" fill="#ffffff" p-id="1181"></path><path d="M929.28 902.144H139.264V112.128c0-16.896-13.312-30.208-30.208-30.208s-30.208 13.312-30.208 30.208v820.224c0 16.896 13.312 30.208 30.208 30.208h820.224c16.896 0 30.208-13.312 30.208-30.208 0-16.896-13.312-30.208-30.208-30.208z" fill="#ffffff" p-id="1182"></path></svg>