<?xml version="1.0" encoding="utf-8"?>
<!-- Svg Vector Icons : http://www.sfont.cn -->
<!DOCTYPE svg PUBLIC "-//W3C//DTD SVG 1.1//EN" "http://www.w3.org/Graphics/SVG/1.1/DTD/svg11.dtd">
<svg version="1.1" xmlns="http://www.w3.org/2000/svg" xmlns:xlink="http://www.w3.org/1999/xlink" x="0px" y="0px" viewBox="0 0 1000 1000" enable-background="new 0 0 1000 1000" xml:space="preserve">
<g><g transform="translate(0.000000,511.000000) scale(0.100000,-0.100000)"><path fill="#1ab394" d="M4622.6,4998.3c-673.4-66.5-1234.6-222.4-1783.3-494.7c-517.5-255.7-920.8-548.7-1328.1-960.3C424.1,2445.9-76.8,901.6,156-630.2c122.6-812.7,442.7-1565.1,951.9-2242.7c191.2-253.6,613.1-683.8,854.2-868.8c715-550.8,1434.1-862.6,2317.5-1008.1c324.2-52,1109.9-52,1444.5,0c2224,351.3,3917.9,2118,4156.9,4331.5c37.4,338.8,16.6,1028.8-39.5,1346.8c-239,1353.1-1010.1,2525.3-2153.3,3279.8c-650.5,428.2-1467.4,712.9-2244.7,783.6C5229.5,5010.7,4784.7,5014.9,4622.6,4998.3z M5474.8,4243.8c1415.4-176.7,2618.9-1018.4,3250.7-2278c496.8-991.4,577.8-2105.5,230.7-3157.2C8461.5-2696.2,7145.9-3797.8,5580.8-4016c-301.4-43.6-845.9-43.6-1147.3,0c-700.4,97.7-1359.3,367.9-1928.8,794c-201.6,149.7-571.6,509.2-735.8,710.8C1085.1-1665.3,754.6-561.6,860.6,504.6C1056,2435.5,2535.8,3969.4,4456.3,4233.4C4701.6,4266.7,5239.9,4272.9,5474.8,4243.8z"/><path fill="#1ab394" d="M2939.1,107.7v-374.1h2068.1h2068.1v374.1v374.1H5007.1H2939.1V107.7z"/></g></g>
</svg>