<?xml version="1.0" encoding="utf-8"?>
<!-- Svg Vector Icons : http://www.sfont.cn -->
<!DOCTYPE svg PUBLIC "-//W3C//DTD SVG 1.1//EN" "http://www.w3.org/Graphics/SVG/1.1/DTD/svg11.dtd">
<svg version="1.1" xmlns="http://www.w3.org/2000/svg" xmlns:xlink="http://www.w3.org/1999/xlink" x="0px" y="0px" viewBox="0 0 1000 1000" enable-background="new 0 0 1000 1000" xml:space="preserve">
<g><path fill="#1ab394" d="M500,10L500,10c20.8,0,37.7,11.2,37.7,37.7v904.6c0,24.2-16.9,37.7-37.7,37.7l0,0c-20.8,0-37.7-19.5-37.7-37.7c0,0,0-882.6,0-904.6C462.3,25.7,479.2,10,500,10z"/><path fill="#1ab394" d="M47.7,462.3h904.6c21.2,0,37.7,16.9,37.7,37.7l0,0c0,20.8-15,37.7-37.7,37.7H47.7c-19,0-37.7-16.9-37.7-37.7l0,0C10,479.2,24.2,462.3,47.7,462.3z"/></g>
</svg>