<?xml version="1.0" encoding="utf-8"?>
<!-- Svg Vector Icons : http://www.sfont.cn -->
<!DOCTYPE svg PUBLIC "-//W3C//DTD SVG 1.1//EN" "http://www.w3.org/Graphics/SVG/1.1/DTD/svg11.dtd">
<svg version="1.1" xmlns="http://www.w3.org/2000/svg" xmlns:xlink="http://www.w3.org/1999/xlink" x="0px" y="0px" viewBox="0 0 1000 1000" enable-background="new 0 0 1000 1000" xml:space="preserve">
<g><path fill="#1ab394" d="M989.2,153.6c-7.7,27.5-14.6,53.1-33.6,68.5C789.1,357,655.7,524.5,504.7,674.6c-4,4-8.7,7.4-11.7,12c-64.1,100.1-176.4,112.8-274.6,150.5c-21.1,8.1-54.1-29.5-47.7-51.8c17.8-62.9,35.3-125.9,54.4-188.4c3.2-10.6,13.4-19.7,21.9-27.9c143.6-137.9,287.9-275,430.8-413.6c34.1-33.1,63.6-70.8,94.8-106.9C814.7-0.1,873.5-4,919.4,41.1c27.6,27.1,61.1,50.7,67.5,93.5c0.8,5.6,1.7,11.1,2.6,16.6C991.5,152.5,987.1,152.4,989.2,153.6L989.2,153.6z M728,199.6C588.8,339.1,449.8,478.3,313.9,614.5c23.4,23.7,49.3,50,72,72.9c139-136,279.3-273.2,418.8-409.7C776.2,248.8,750.3,222.4,728,199.6L728,199.6z M761.2,140.7c34.6,33.1,64.7,62,100.3,96.1c6.3-8.7,12.5-19.4,20.8-28c60-62.3,60.2-62.2-3.1-122.1c-1.3-1.3-2.6-2.7-4-4c-17.5-15.7-35.2-15.9-52.5,0C802.9,101.1,783.4,119.8,761.2,140.7L761.2,140.7z M245.9,761.9c32-12.9,57.3-23.1,78.9-31.8c-16.6-19.5-31.8-37.4-49.7-58.5C265.2,702.4,256.7,728.4,245.9,761.9L245.9,761.9z M446.8,990.5c-92.6,0-185.2,0.1-277.9-0.1c-50.7-0.1-95.5-13.8-129.5-54.7c-22.5-27-28.8-58.3-28.9-91.6c-0.3-184.3-1-368.7,0.2-553c0.6-99,61.7-158,160.8-158.5c100.1-0.6,200.2,0,300.3-0.2c21.9,0,42.8,1.7,45.6,29.4c2,20.3-14.5,30.5-47,30.5c-97.3,0.1-194.6-0.2-291.9,0.1c-69.6,0.2-109.1,40.1-109.2,109.8c-0.1,177.8-0.1,355.5,0,533.3c0,55,37.1,94.3,92.6,94.5c190,0.7,379.9,0.6,569.8,0.1c44.9-0.1,74-32.2,74.3-80.8c0.5-121.6,0.2-243.3,0.4-364.9c0-9.3-2.2-21,2.5-27.3c7.8-10.6,21.2-25.5,30.6-24.4c9.8,1.1,18.5,18.4,26.1,29.7c2.6,3.9,0.6,11,0.6,16.6c0,120.7,0.2,241.4-0.1,362.1c-0.2,101.6-48.1,149.2-149.9,149.4C626.4,990.5,536.6,990.5,446.8,990.5L446.8,990.5z"/></g>
</svg>