<?xml version="1.0" encoding="utf-8"?>
<!-- Svg Vector Icons : http://www.sfont.cn -->
<!DOCTYPE svg PUBLIC "-//W3C//DTD SVG 1.1//EN" "http://www.w3.org/Graphics/SVG/1.1/DTD/svg11.dtd">
<svg version="1.1" xmlns="http://www.w3.org/2000/svg" xmlns:xlink="http://www.w3.org/1999/xlink" x="0px" y="0px" viewBox="0 0 1000 1000" enable-background="new 0 0 1000 1000" xml:space="preserve">
<g><path fill="#1ab394" d="M316.3,806.3c16.9,0,30.6-13.7,30.6-30.6V438.8c0-16.9-13.7-30.6-30.6-30.6s-30.6,13.7-30.6,30.6v336.9C285.6,792.6,299.3,806.3,316.3,806.3z"/><path fill="#1ab394" d="M500,806.3c16.9,0,30.6-13.7,30.6-30.6V438.8c0-16.9-13.7-30.6-30.6-30.6c-16.9,0-30.6,13.7-30.6,30.6v336.9C469.4,792.6,483.1,806.3,500,806.3z"/><path fill="#1ab394" d="M683.8,806.3c16.9,0,30.6-13.7,30.6-30.6V438.8c0-16.9-13.7-30.6-30.6-30.6s-30.6,13.7-30.6,30.6v336.9C653.1,792.6,666.8,806.3,683.8,806.3z"/><path fill="#1ab394" d="M867.5,285.6h74.7c0,0,17.2-1.3,17.2-30.6c0-7.7,0-30.6,0-30.6c0-67.5-54.9-122.5-122.5-122.5H710C696.3,49.2,648.8,10,591.9,10H408.1c-56.9,0-104.5,39.2-118.2,91.9H163.1c-67.6,0-122.5,55-122.5,122.5c0,0,0,23,0,30.6c0,29.9,17.2,30.6,17.2,30.6h74.7v581.9C132.5,935,187.4,990,255,990h490c67.6,0,122.5-55,122.5-122.5L867.5,285.6L867.5,285.6z M408.1,71.2h183.7c22.6,0,42.1,12.4,52.7,30.6H355.4C366,83.7,385.6,71.2,408.1,71.2z M806.3,867.5c0,33.8-27.5,61.2-61.3,61.2H255c-33.8,0-65.5-27.5-65.5-61.2l4.3-581.9h612.5V867.5z M836.9,163.1c33.8,0,61.3,27.5,61.3,61.3h-72.9H672.1H327.9H174.8h-72.9c0-33.8,27.5-61.3,61.3-61.3H836.9z"/></g>
</svg>